<?xml version="1.0" encoding="UTF-8"?>
<svg xmlns="http://www.w3.org/2000/svg" xmlns:xlink="http://www.w3.org/1999/xlink" width="18px" height="18px" viewBox="0 0 18 18" version="1.1" >
  <g id="surface1">
    <path style="stroke:gray;stroke-width:1;fill:gray;" d="M 16.949219 0.871094 C 16.335938 0.285156 15.660156 -0.0117188 14.9375 -0.0117188 C 13.8125 -0.0117188 12.988281 0.71875 12.761719 0.941406 C 12.445312 1.253906 1.632812 12.070312 1.632812 12.070312 C 1.5625 12.140625 1.511719 12.230469 1.484375 12.328125 C 1.242188 13.230469 0.0195312 17.226562 0.0078125 17.269531 C -0.0546875 17.472656 0 17.695312 0.152344 17.847656 C 0.257812 17.953125 0.402344 18.011719 0.550781 18.011719 C 0.609375 18.011719 0.667969 18.003906 0.726562 17.984375 C 0.765625 17.972656 4.894531 16.636719 5.574219 16.433594 C 5.664062 16.40625 5.746094 16.359375 5.8125 16.292969 C 6.242188 15.871094 16.324219 5.898438 16.996094 5.207031 C 17.6875 4.492188 18.03125 3.75 18.019531 2.996094 C 18.003906 2.253906 17.644531 1.542969 16.949219 0.875 Z M 12.582031 2.738281 C 12.871094 2.808594 13.546875 3.035156 14.234375 3.730469 C 14.933594 4.4375 15.121094 5.242188 15.15625 5.421875 C 12.945312 7.625 7.855469 12.660156 5.847656 14.644531 C 5.664062 14.214844 5.363281 13.695312 4.878906 13.210938 C 4.292969 12.617188 3.691406 12.28125 3.230469 12.09375 C 5.21875 10.105469 10.40625 4.917969 12.582031 2.738281 Z M 2.46875 13.042969 C 2.777344 13.125 3.417969 13.363281 4.074219 14.023438 C 4.578125 14.53125 4.816406 15.089844 4.921875 15.433594 C 4.140625 15.683594 2.429688 16.273438 1.339844 16.625 C 1.664062 15.566406 2.207031 13.914062 2.46875 13.042969 Z M 16.179688 4.402344 C 16.15625 4.425781 16.117188 4.460938 16.074219 4.507812 C 15.894531 4.050781 15.582031 3.460938 15.042969 2.917969 C 14.492188 2.363281 13.929688 2.035156 13.484375 1.839844 C 13.519531 1.800781 13.550781 1.773438 13.5625 1.761719 C 13.625 1.699219 14.210938 1.140625 14.9375 1.140625 C 15.355469 1.140625 15.769531 1.332031 16.160156 1.707031 C 16.628906 2.15625 16.867188 2.59375 16.875 3.019531 C 16.882812 3.449219 16.648438 3.914062 16.179688 4.402344 Z M 16.179688 4.402344 "/>
  </g>
</svg>